<!-- Generated by IcoMoon.io -->
<svg version="1.1" xmlns="http://www.w3.org/2000/svg" width="32" height="32" viewBox="0 0 32 32">
<title>pay_debit</title>
<path d="M24.649 4.755c1.924 0 3.647 0.862 4.804 2.22l0.007 0.009c0-0.127 0-0.254 0-0.381 0.005-0.078 0.007-0.17 0.007-0.262 0-2.681-2.173-4.854-4.854-4.854s-4.854 2.173-4.854 4.854c0 0.092 0.003 0.183 0.008 0.274l-0.001-0.013c0 0.127 0 0.254 0 0.381 1.164-1.368 2.887-2.23 4.812-2.23 0.025 0 0.049 0 0.074 0l-0.004-0zM24.649 9.58c1.924 0 3.647 0.862 4.804 2.22l0.007 0.009c0-0.127 0-0.254 0-0.381 0.005-0.078 0.007-0.17 0.007-0.262 0-2.681-2.173-4.854-4.854-4.854s-4.854 2.173-4.854 4.854c0 0.092 0.003 0.183 0.008 0.274l-0.001-0.013c0 0.127 0 0.254 0 0.381 1.164-1.368 2.887-2.23 4.812-2.23 0.025 0 0.049 0 0.074 0l-0.004-0zM29.503 16.353c0 2.681-2.173 4.854-4.854 4.854s-4.854-2.173-4.854-4.854c0-2.681 2.173-4.854 4.854-4.854s4.854 2.173 4.854 4.854zM6.843 30.279v-2.497h5.616v-4.995h-5.616v-2.497l-4.995 4.995 4.995 4.995zM17.693 16.353c0.009-0.631 0.101-1.237 0.266-1.812l-0.012 0.049v-0.776h-3.668v15.52h3.697v-11.132c-0.17-0.551-0.272-1.186-0.282-1.843l-0-0.005zM17.735 7.055c-0.006-0.078-0.009-0.169-0.009-0.261s0.003-0.183 0.010-0.273l-0.001 0.012c0.006-1.321 0.383-2.554 1.033-3.599l-0.017 0.029-2.272-0.974-15.21 6.138h16.55zM17.735 11.937c-0.006-0.078-0.009-0.169-0.009-0.261s0.003-0.183 0.010-0.273l-0.001 0.012c0.010-0.506 0.077-0.991 0.193-1.456l-0.009 0.045h-14.73v2.568h14.589zM25.397 23.238v6.053h3.668v-7.605c-1 0.836-2.257 1.397-3.637 1.549l-0.031 0.003zM19.824 21.347v7.944h3.697v-6.095c-1.449-0.241-2.714-0.901-3.699-1.85l0.002 0.002zM5.573 19.019l1.312-1.312v-3.894h-3.697v7.591l2.384-2.384zM8.734 13.813h3.697v7.182h-3.697v-7.182z"></path>
</svg>
